<?xml version="1.0" encoding="UTF-8"?><svg id="Layer_1" xmlns="http://www.w3.org/2000/svg" viewBox="0 0 259.36 156.65"><defs><style>.cls-1{fill:#26c2eb;}</style></defs><path class="cls-1" d="M234.69,65.05l-1.99-22.71c-.44-5.02-4.88-8.75-9.9-8.31l-22.71,1.99c-5.02,.44-8.75,4.88-8.31,9.9l.98,11.26c-.15,.11-.3,.21-.44,.33l-17.47,14.66c-1.86,1.56-3.01,3.77-3.22,6.21-.21,2.44,.53,4.81,2.1,6.67l14.66,17.47c2.54,3.02,6.63,3.99,10.14,2.71,.97-.35,1.9-.88,2.74-1.59l17.47-14.66c3.86-3.24,4.37-9.02,1.13-12.88l-.45-.54,6.98-.61c.81-.07,1.59-.25,2.33-.51,3.79-1.38,6.35-5.18,5.98-9.39Zm-21.79-13.35c2.09-.18,3.93,1.36,4.12,3.45,.18,2.09-1.36,3.93-3.45,4.12-2.09,.18-3.93-1.36-4.12-3.45-.18-2.09,1.36-3.93,3.45-4.12Zm-10.29-8.64c2.09-.18,3.93,1.36,4.12,3.45,.18,2.09-1.36,3.93-3.45,4.12-2.09,.18-3.93-1.36-4.12-3.45-.18-2.09,1.36-3.93,3.45-4.12Zm14.14,43.56l-17.47,14.66c-2.56,2.15-6.39,1.81-8.53-.75l-14.66-17.47c-1.03-1.23-1.53-2.8-1.39-4.42,.14-1.62,.9-3.08,2.13-4.11l17.47-14.66c.56-.47,1.17-.82,1.82-1.05,2.33-.85,5.04-.21,6.72,1.8l14.66,17.47c2.15,2.56,1.81,6.39-.75,8.53Zm7.11-18.72c-2.09,.18-3.93-1.36-4.12-3.45-.18-2.09,1.36-3.93,3.45-4.12,2.09-.18,3.93,1.36,4.12,3.45,.18,2.09-1.36,3.93-3.45,4.12Z"/><path class="cls-1" d="M186.32,76.96c-1.35-1.61-3.75-1.82-5.35-.47-1.61,1.35-1.82,3.75-.47,5.35,1.35,1.61,3.75,1.82,5.35,.47,1.61-1.35,1.82-3.75,.47-5.35Z"/><path class="cls-1" d="M192.42,84.24c-1.35-1.61-3.75-1.82-5.35-.47-1.61,1.35-1.82,3.75-.47,5.35,1.35,1.61,3.75,1.82,5.35,.47,1.61-1.35,1.82-3.75,.47-5.35Z"/><path class="cls-1" d="M193.18,91.04c-1.61,1.35-1.82,3.75-.47,5.35,1.35,1.61,3.75,1.82,5.35,.47,1.61-1.35,1.82-3.75,.47-5.35-1.35-1.61-3.75-1.82-5.35-.47Z"/><path class="cls-1" d="M200.4,70.1c1.61-1.35,1.82-3.75,.47-5.35-1.35-1.61-3.75-1.82-5.35-.47-1.61,1.35-1.82,3.75-.47,5.35s3.75,1.82,5.35,.47Z"/><path class="cls-1" d="M206.98,72.02c-1.35-1.61-3.75-1.82-5.35-.47-1.61,1.35-1.82,3.75-.47,5.35,1.35,1.61,3.75,1.82,5.35,.47,1.61-1.35,1.82-3.75,.47-5.35Z"/><path class="cls-1" d="M207.73,78.83c-1.61,1.35-1.82,3.75-.47,5.35,1.35,1.61,3.75,1.82,5.35,.47,1.61-1.35,1.82-3.75,.47-5.35-1.35-1.61-3.75-1.82-5.35-.47Z"/><path class="cls-1" d="M158.82,73.73c14.88-10.66,27.14-27.8,21.78-30.44-2,2.45-8.85,10.4-17.28,15.4,0,0,10.1-8.81,15.29-15.74,4.53-6.03,7.55-14.77,3.19-15.58-3.74,4.55-12.47,14.68-19.5,19.05,0,0,7.8-7.95,16.69-18.76,4.08-4.61,12.56-21.15,3.82-16.43-20.47,10.96-41.4,34.39-35.79,37.4,4.46,2.4,11.59,11.74,9.16,21.65-7.14-8.82-13.6-13.1-19.25-12.7-2.34,.16-4.45,.6-6.47,1.33-3.65,1.33-6.28,3.39-8.82,5.39-2.55,2-4.97,3.89-8.48,5.17-3.51,1.28-6.57,1.38-9.82,1.49-3.23,.11-6.58,.22-10.22,1.55-2.01,.73-3.91,1.76-5.81,3.13-4.58,3.32-6.78,10.75-6.58,22.08-8.22-6.03-8.78-17.75-6.9-22.45,2.36-5.91-28.73-10.4-51.46-5.64-9.72,2,7.4,9.22,13.49,10.14,13.76,2.57,24.84,3.64,24.84,3.64-8.2,1.17-21.4-.98-27.19-2.06-2.82,3.42,5.11,8.18,12.46,9.89,8.44,1.97,21.83,2.23,21.83,2.23-9.68,1.59-20.03-.09-23.14-.69-2.41,5.46,18,10.71,36.25,9.31,.62,9.49,2.65,19.38,4.32,24.1,1.93,6.06,5.15,8.72,7.51,9.89,2.71,1.33,5.71,1.47,8.69,.38,3.75-1.37,7.18-4.62,9.64-9.18,4.76-7.61,9.05-13.66,17.08-16.58,8.03-2.92,15.21-1.05,23.74,1.72,4.82,1.9,9.53,2.2,13.29,.83,2.98-1.08,5.2-3.12,6.41-5.88,1.06-2.41,1.82-6.52-.6-12.4-1.76-4.69-6.56-13.56-12.18-21.23Zm5.31,36.62c-2.95,1.07-6.87,.88-11.19-.84-8.16-2.65-16.54-5.11-25.85-1.72-9.31,3.39-14.15,10.65-18.69,17.93-2.2,4.09-5.08,6.76-8.03,7.83-4.83,1.76-9.83-.77-12.23-8.35-3.18-8.93-8.42-40.25,.97-47.07,1.76-1.28,3.43-2.14,5.05-2.73,6.61-2.41,12.38-.25,20.04-3.03,7.66-2.79,10.69-8.15,17.3-10.55,1.62-.59,3.46-1,5.63-1.15,11.58-.82,27.69,26.55,31,35.43,3.04,7.35,.84,12.5-4,14.26Z"/><path class="cls-1" d="M140.35,86.57h-.01c-1.88,.7-2.84,2.78-2.16,4.66,.69,1.88,2.76,2.85,4.65,2.18h.01c1.89-.69,2.86-2.78,2.17-4.66-.69-1.89-2.77-2.86-4.66-2.17Z"/><path class="cls-1" d="M138.04,80.22c1.89-.69,2.86-2.77,2.17-4.66-.69-1.89-2.77-2.86-4.66-2.17h-.01c-1.88,.7-2.84,2.78-2.16,4.66,.68,1.88,2.76,2.85,4.65,2.18h.01Z"/><path class="cls-1" d="M131.37,82.38h-.01c-1.88,.7-2.84,2.78-2.16,4.66,.68,1.88,2.76,2.85,4.65,2.18h.01c1.89-.69,2.86-2.78,2.17-4.66-.69-1.89-2.77-2.86-4.66-2.17Z"/><path class="cls-1" d="M144.54,77.58h-.01c-1.88,.7-2.84,2.78-2.16,4.66,.68,1.88,2.76,2.85,4.65,2.18h.01c1.89-.69,2.86-2.78,2.17-4.66-.69-1.89-2.77-2.86-4.66-2.17Z"/><path class="cls-1" d="M109.77,91.87c-.07-.2-.22-.36-.41-.44-.19-.09-.41-.1-.6-.03l-4.88,1.78-1.78-4.88c-.07-.19-.22-.36-.41-.44-.19-.09-.41-.1-.6-.03l-1.95,.71-2,.73c-.19,.07-.36,.22-.44,.41-.09,.19-.1,.41-.03,.6l1.78,4.88-4.88,1.78c-.19,.07-.36,.22-.44,.41-.09,.19-.1,.41-.03,.6l1.44,3.95c.07,.2,.22,.36,.41,.44,.19,.09,.41,.1,.6,.03l4.88-1.78,1.78,4.88c.07,.2,.22,.36,.41,.44,.19,.09,.41,.1,.6,.03l2-.73,1.95-.71c.2-.07,.36-.22,.44-.41,.09-.19,.1-.41,.03-.6l-1.78-4.88,4.88-1.78c.19-.07,.36-.22,.44-.41,.09-.19,.1-.41,.03-.6l-1.44-3.95Z"/><path class="cls-1" d="M88.85,63.71c5.79-.51,13.03-2.27,20.4-4.96,7.37-2.68,14.05-5.99,18.81-9.32,5.97-4.17,8.36-8.02,7.12-11.45-1.25-3.43-5.56-4.85-12.81-4.2-5.79,.51-13.03,2.27-20.4,4.96-7.37,2.68-14.05,5.99-18.81,9.32-5.97,4.17-8.36,8.02-7.12,11.45,1.25,3.43,5.56,4.85,12.81,4.2Zm14.17-22.07c14.73-5.36,27.83-6.53,29.26-2.6,1.43,3.93-9.35,11.46-24.09,16.82-14.73,5.36-27.83,6.53-29.26,2.6-1.43-3.93,9.35-11.46,24.09-16.82Z"/></svg>